<svg height='200' width='200'  fill="#000000" xmlns="http://www.w3.org/2000/svg" xmlns:xlink="http://www.w3.org/1999/xlink" version="1.1" x="0px" y="0px" viewBox="0 0 100 100" style="enable-background:new 0 0 100 100;" xml:space="preserve"><g><path d="M50,5C25.1,5,5,25.1,5,50c0,24.9,20.1,45,45,45c24.9,0,45-20.1,45-45C95,25.1,74.9,5,50,5z M50,91C27.4,91,9,72.6,9,50   S27.4,9,50,9s41,18.4,41,41S72.6,91,50,91z"></path><circle cx="50" cy="17" r="3.5"></circle><circle cx="50" cy="83" r="3.5"></circle><path d="M51.1,51.7c0.1,0,0.1-0.1,0.2-0.1c0.1,0,0.1-0.1,0.1-0.1c0,0,0.1-0.1,0.1-0.1c0-0.1,0.1-0.1,0.1-0.2c0-0.1,0.1-0.1,0.1-0.2   c0-0.1,0.1-0.1,0.1-0.2c0-0.1,0-0.1,0.1-0.2c0-0.1,0-0.1,0.1-0.2c0-0.1,0-0.1,0-0.2c0-0.1,0-0.1,0-0.2c0,0,0,0,0-0.1V29   c0-1.1-0.9-2-2-2s-2,0.9-2,2v19.8l-10.8,6.3c-1,0.6-1.3,1.8-0.7,2.7c0.4,0.6,1,1,1.7,1c0.3,0,0.7-0.1,1-0.3L51.1,51.7   C51,51.7,51,51.7,51.1,51.7z"></path><path d="M73.3,23.2c-0.9,0-1.8,0.3-2.5,1c-1.4,1.4-1.4,3.6,0,4.9c0.7,0.7,1.6,1,2.5,1s1.8-0.3,2.5-1c1.4-1.4,1.4-3.6,0-4.9   C75.1,23.5,74.2,23.2,73.3,23.2z"></path><path d="M26.7,69.8c-0.9,0-1.8,0.3-2.5,1c-1.4,1.4-1.4,3.6,0,4.9c0.7,0.7,1.6,1,2.5,1c0.9,0,1.8-0.3,2.5-1c1.4-1.4,1.4-3.6,0-4.9   C28.5,70.2,27.6,69.8,26.7,69.8z"></path><circle cx="83" cy="50" r="3.5"></circle><circle cx="17" cy="50" r="3.5"></circle><path d="M73.3,69.8c-0.9,0-1.8,0.3-2.5,1c-1.4,1.4-1.4,3.6,0,4.9c0.7,0.7,1.6,1,2.5,1s1.8-0.3,2.5-1c1.4-1.4,1.4-3.6,0-4.9   C75.1,70.2,74.2,69.8,73.3,69.8z"></path><path d="M26.7,23.2c-0.9,0-1.8,0.3-2.5,1c-1.4,1.4-1.4,3.6,0,4.9c0.7,0.7,1.6,1,2.5,1c0.9,0,1.8-0.3,2.5-1c1.4-1.4,1.4-3.6,0-4.9   C28.5,23.5,27.6,23.2,26.7,23.2z"></path></g></svg>